# xmcd CD database file
#
# Track frame offsets:
#	180
#	15503
#	31915
#	51636
#	68549
#	87736
#	103299
#	127882
#	142113
#	161016
#	180416
#	200723
#	223243
#	240845
#	257410
#	275354
#
# Disc length: 4029 seconds
#
# Revision: 3
# Processed by: cddbd v1.5.2PL0 Copyright (c) Steve Scherf et al.
# Submitted via: CDex 2.13
#
DISCID=e70fbb10
DTITLE=Various Artist - ERA UMA VEZ INTERNACIONAL
DYEAR=1998
DGENRE=Blues
TTITLE0=AQUA - MY OH MY
TTITLE1=BOYZONE - ALL THAT I NEED
TTITLE2=DAKOTA MOON - A PROMISSE I MAKE
TTITLE3=LORI CARSON - I SAW THE LIGHT
TTITLE4=FASTBALL - THE WAY
TTITLE5=ROBYN - SHOW ME LOVE
TTITLE6=ALL SAINTS - NEVER EVER
TTITLE7=BLACKBOX - THE BEAT OF YOUR HEART
TTITLE8=GABRIELLE - LOVE ME BABY
TTITLE9=THE CORRS - DREAMS
TTITLE10=TWO 4 YOU - ALL I HAVE TO GIVE
TTITLE11=MARYSA ALFAIA - F... COMME FEMME
TTITLE12=CRISTIAN - LO MEJOR DE MI
TTITLE13=D-SOUL - WITHOUT LOVE
TTITLE14=DON BONNECHI - DONT LEAVE WITHOUT GOODBYE
TTITLE15=ORION STORN - BITTER SWEET SYMPHONY
EXTD=YEAR: 1998
EXTT0=
EXTT1=
EXTT2=
EXTT3=
EXTT4=
EXTT5=
EXTT6=
EXTT7=
EXTT8=
EXTT9=
EXTT10=
EXTT11=
EXTT12=
EXTT13=
EXTT14=
EXTT15=
PLAYORDER=
